<?xml version="1.0" encoding="UTF-8"?>
<svg width="780px" height="140px" viewBox="0 0 780 140" version="1.1" xmlns="http://www.w3.org/2000/svg" xmlns:xlink="http://www.w3.org/1999/xlink">
    <!-- Generator: Sketch 43.2 (39069) - http://www.bohemiancoding.com/sketch -->
    <title>Valgkampslogo RGB</title>
    <desc>Created with Sketch.</desc>
    <defs>
        <polygon id="path-1" points="0 140 780 140 780 0 0 0"></polygon>
    </defs>
    <g id="Page-1" stroke="none" stroke-width="1" fill="none" fill-rule="evenodd">
        <g id="Valgkampslogo-RGB">
            <polygon id="Fill-1" fill="#D0004D" points="158 140 780 140 780 0 158 0"></polygon>
            <polygon id="Fill-2" fill="#FFFFFF" points="190.6401 29.8975 228.7321 29.8975 228.7321 45.3135 206.2791 45.3135 206.2791 60.6165 227.0571 60.6165 227.0571 76.0325 206.2791 76.0325 206.2791 93.7935 229.1791 93.7935 229.1791 109.2105 190.6401 109.2105"></polygon>
            <polygon id="Fill-3" fill="#FFFFFF" points="235.3208 29.8975 247.0498 29.8975 266.0398 76.5905 266.0398 29.8975 281.6788 29.8975 281.6788 109.2105 269.0558 109.2105 250.9598 66.9835 250.9598 109.2105 235.3208 109.2105"></polygon>
            <polygon id="Fill-4" fill="#FFFFFF" points="288.9375 29.8975 304.5775 29.8975 304.5775 61.6225 320.3275 61.6225 320.3275 29.8975 335.9665 29.8975 335.9665 109.2105 320.3275 109.2105 320.3275 77.0385 304.5775 77.0385 304.5775 109.2105 288.9375 109.2105"></polygon>
            <polygon id="Fill-5" fill="#FFFFFF" points="343.2246 29.8975 381.3166 29.8975 381.3166 45.3135 358.8646 45.3135 358.8646 60.6165 379.6416 60.6165 379.6416 76.0325 358.8646 76.0325 358.8646 93.7935 381.7636 93.7935 381.7636 109.2105 343.2246 109.2105"></polygon>
            <g id="Group-20">
                <path d="M417.2842,93.7939 C428.6782,93.7939 440.0722,84.9689 440.0722,69.2179 C440.0722,53.5799 428.9012,45.3129 417.5072,45.3129 L403.5442,45.3129 L403.5442,93.7939 L417.2842,93.7939 Z M387.9052,29.8979 L418.9602,29.8979 C436.1612,29.8979 455.9342,42.1849 455.9342,69.5529 C455.9342,95.8039 436.0502,109.2099 418.5132,109.2099 L387.9052,109.2099 L387.9052,29.8979 Z" id="Fill-6" fill="#FFFFFF"></path>
                <path d="M458.9482,106.9756 L458.9482,90.8896 C462.4112,92.5656 468.5552,94.9116 472.9112,94.9116 C478.2732,94.9116 481.8472,92.1186 481.8472,87.3146 C481.8472,76.2566 457.2722,69.8886 457.2722,50.1166 C457.2722,36.4886 469.0022,28.7806 481.6252,28.7806 C488.3272,28.7806 493.9132,30.7906 495.4752,32.0196 L495.4752,47.8816 C492.0122,46.3176 485.9802,44.1956 481.8472,44.1956 C476.8212,44.1956 473.1362,46.5416 473.1362,50.6756 C473.1362,59.4996 497.7102,68.4366 497.7102,87.7616 C497.7102,102.2836 486.2052,110.3276 473.5812,110.3276 C467.8852,110.3276 461.8532,108.4276 458.9482,106.9756" id="Fill-8" fill="#FFFFFF"></path>
                <polygon id="Fill-10" fill="#FFFFFF" points="538.2578 93.7939 538.2578 109.2099 502.9568 109.2099 502.9568 29.8979 518.5968 29.8979 518.5968 93.7939"></polygon>
                <mask id="mask-2" fill="white">
                    <use xlink:href="#path-1"></use>
                </mask>
                <g id="Clip-13"></g>
                <polygon id="Fill-12" fill="#FFFFFF" mask="url(#mask-2)" points="543.281 109.21 558.921 109.21 558.921 29.897 543.281 29.897"></polygon>
                <path d="M565.2861,106.9756 L565.2861,90.8896 C568.7491,92.5656 574.8921,94.9116 579.2491,94.9116 C584.6111,94.9116 588.1851,92.1186 588.1851,87.3146 C588.1851,76.2566 563.6101,69.8886 563.6101,50.1166 C563.6101,36.4886 575.3401,28.7806 587.9631,28.7806 C594.6651,28.7806 600.2511,30.7906 601.8131,32.0196 L601.8131,47.8816 C598.3501,46.3176 592.3181,44.1956 588.1851,44.1956 C583.1591,44.1956 579.4741,46.5416 579.4741,50.6756 C579.4741,59.4996 604.0481,68.4366 604.0481,87.7616 C604.0481,102.2836 592.5431,110.3276 579.9191,110.3276 C574.2231,110.3276 568.1901,108.4276 565.2861,106.9756" id="Fill-14" fill="#FFFFFF" mask="url(#mask-2)"></path>
                <polygon id="Fill-15" fill="#FFFFFF" mask="url(#mask-2)" points="651.8555 45.313 636.9995 45.313 636.9995 109.21 621.3605 109.21 621.3605 45.313 606.5025 45.313 606.5025 29.897 651.8555 29.897"></polygon>
                <polygon id="Fill-16" fill="#FFFFFF" mask="url(#mask-2)" points="656.3213 29.8975 694.4133 29.8975 694.4133 45.3135 671.9613 45.3135 671.9613 60.6165 692.7373 60.6165 692.7373 76.0325 671.9613 76.0325 671.9613 93.7935 694.8603 93.7935 694.8603 109.2105 656.3213 109.2105"></polygon>
                <polygon id="Fill-17" fill="#FFFFFF" mask="url(#mask-2)" points="701.001 29.8975 712.73 29.8975 731.721 76.5905 731.721 29.8975 747.359 29.8975 747.359 109.2105 734.737 109.2105 716.642 66.9835 716.642 109.2105 701.001 109.2105"></polygon>
                <polygon id="Fill-18" fill="#D0004D" mask="url(#mask-2)" points="0 140 140 140 140 0 0 0"></polygon>
                <path d="M97.8589,69.2588 C97.8589,64.0998 96.4409,59.0698 93.8599,54.5558 L55.5569,94.2798 C59.8129,96.9878 64.5849,98.5348 69.8719,98.5348 C85.3489,98.5348 97.8589,84.6068 97.8589,69.2588 M46.5279,84.9938 L84.9619,44.7548 C80.5769,41.7878 75.4179,39.9828 69.8719,39.9828 C54.3959,39.9828 41.8849,54.0398 41.8849,69.2588 C41.8849,74.9348 43.5619,80.3508 46.5279,84.9938 M116.1729,69.2588 C116.1729,94.5368 95.5369,116.3328 69.8719,116.3328 C59.8129,116.3328 50.5259,112.9808 42.9179,107.4358 L36.3399,114.1408 L27.1829,105.2418 L33.6309,98.4058 C27.3119,90.2808 23.5719,80.0928 23.5719,69.2588 C23.5719,43.9808 44.2069,22.1848 69.8719,22.1848 C80.1899,22.1848 89.7339,25.7958 97.4719,31.5988 L104.5659,24.2478 L113.9799,33.7918 L106.8869,41.1438 C112.6909,49.1398 116.1729,58.9418 116.1729,69.2588" id="Fill-19" fill="#FFFFFF" mask="url(#mask-2)"></path>
            </g>
        </g>
    </g>
</svg>